<?xml version="1.0" encoding="UTF-8"?>
<svg version="1.1" xmlns="http://www.w3.org/2000/svg" width="1024" height="1024">
<path d="M0 0 C337.92 0 675.84 0 1024 0 C1024 337.92 1024 675.84 1024 1024 C686.08 1024 348.16 1024 0 1024 C0 686.08 0 348.16 0 0 Z " fill="none" transform="translate(0,0)"/>
<path d="M0 0 C4.60405058 -0.07519808 9.20772935 -0.12908615 13.81225586 -0.16479492 C15.3725407 -0.17970976 16.93278494 -0.20004901 18.49291992 -0.22631836 C44.94718492 -0.65999483 44.94718492 -0.65999483 53 7 C63.59418925 20.35789079 67.3224316 39.87100003 72.59594727 55.82275391 C76.46380748 67.50227194 80.51390664 79.11164089 84.64355469 90.70092773 C85.14139729 92.0987524 85.63911981 93.49661983 86.13671875 94.89453125 C86.37919342 95.57565475 86.62166809 96.25677826 86.87149048 96.95854187 C88.48418013 101.50430021 90.04603161 106.0644546 91.58203125 110.63671875 C91.98212402 111.82144775 92.3822168 113.00617676 92.79443359 114.22680664 C93.52857936 116.40933011 94.2548539 118.59452592 94.97119141 120.78295898 C97.00016987 126.79362073 99.41854232 131.75550023 103 137 C105.86621087 137.23647647 105.86621087 137.23647647 109 136 C111.0461898 133.17778496 112.17716806 129.98316934 113.4375 126.75 C113.84363525 125.76378662 114.24977051 124.77757324 114.66821289 123.76147461 C115.85634124 120.86226718 117.02115685 117.95462224 118.18066406 115.04388428 C119.72407765 111.19374342 121.30275736 107.35796602 122.875 103.51953125 C125.52334457 97.04088167 128.16085307 90.55799089 130.77734375 84.06640625 C131.05823853 83.37126419 131.3391333 82.67612213 131.62854004 81.95991516 C132.16342433 80.63016685 132.69031589 79.29717093 133.20851135 77.96083069 C133.74702269 76.62672493 134.33135148 75.31041324 134.95445251 74.01365662 C137.05208161 69.37418836 137.17073624 66.61772458 135.41056824 61.83714294 C135.11394791 61.11615921 134.81732758 60.39517548 134.51171875 59.65234375 C134.21570267 58.87798477 133.91968658 58.10362579 133.61470032 57.30580139 C132.98359946 55.66983135 132.33985474 54.03868945 131.68432617 52.41235352 C130.70385725 49.9781107 129.76181688 47.53184891 128.82617188 45.08007812 C119.49404611 20.39017447 119.49404611 20.39017447 100 4 C100 2.68 100 1.36 100 0 C104.60405058 -0.07519808 109.20772935 -0.12908615 113.81225586 -0.16479492 C115.3725407 -0.17970976 116.93278494 -0.20004901 118.49291992 -0.22631836 C144.94718492 -0.65999483 144.94718492 -0.65999483 153 7 C161.54172587 18.3285489 165.6030877 33.36542778 170.046875 46.6640625 C170.50718986 48.03060113 170.96791439 49.39700182 171.42901611 50.76327515 C172.63215522 54.33133873 173.8304675 57.90100272 175.02746582 61.47113037 C176.91945349 67.11113314 178.81914467 72.74855036 180.7179718 78.38625336 C181.18584216 79.77563998 181.65352518 81.1650897 182.12101746 82.55460358 C187.00280155 97.06337367 191.98486627 111.53683453 197 126 C202.10057671 114.02799363 206.56054779 101.84492298 210.97705078 89.60839844 C211.91041034 87.02544868 212.85354705 84.44639087 213.80517578 81.87011719 C215.18905675 78.12341969 216.54465501 74.36705475 217.8984375 70.609375 C218.3253891 69.4633783 218.7523407 68.31738159 219.19223022 67.13665771 C223.2890971 55.60531662 220.64756633 48.1108348 216.8125 36.75 C216.43802734 35.59886719 216.06355469 34.44773437 215.67773438 33.26171875 C210.69522355 17.07999673 210.69522355 17.07999673 199.25 5.5 C198.5075 5.005 197.765 4.51 197 4 C197 2.68 197 1.36 197 0 C213.17 0 229.34 0 246 0 C246 1.65 246 3.3 246 5 C245.154375 5.7425 244.30875 6.485 243.4375 7.25 C240.59357321 9.84163617 240.59357321 9.84163617 241.0234375 13.640625 C242.10304543 21.14897841 244.79729458 28.32873231 247.1875 35.5 C247.72217771 37.12508037 248.25634649 38.75032826 248.79003906 40.37573242 C253.98793355 56.15351637 259.37842925 71.86691183 264.7734375 87.578125 C268.59045631 98.69403461 272.30789049 109.8420296 276 121 C282.54364317 102.0776908 288.25457627 82.90308367 294.02600098 63.73535156 C295.08282419 60.2278073 296.14232536 56.72107458 297.20193958 53.21437263 C298.47535031 48.99995154 299.74761847 44.7851859 301.01953125 40.5703125 C301.2582728 39.77924229 301.49701435 38.98817207 301.74299049 38.17313004 C302.42016878 35.9282651 303.0965785 33.68317017 303.77270508 31.43798828 C303.9695842 30.78549103 304.16646332 30.13299377 304.36930847 29.46072388 C304.91661366 27.64160402 305.45839528 25.82082518 306 24 C306.55423897 22.15340286 306.55423897 22.15340286 307.11967468 20.26950073 C308.09442753 16.6492991 308.35880505 13.73157248 308 10 C306.27974216 7.62440584 304.48676301 6.65784201 302 5 C302 3.35 302 1.7 302 0 C314.21 0 326.42 0 339 0 C338.67 1.65 338.34 3.3 338 5 C336.948125 5.680625 335.89625 6.36125 334.8125 7.0625 C325.51555375 13.26281812 322.63598417 28.38162134 319.36846924 38.49908447 C318.1583411 42.24513228 316.92722385 45.98419075 315.69741821 49.72381592 C315.05872336 51.66624324 314.42101327 53.60899464 313.78427124 55.55206299 C311.07259881 63.81792608 308.26752314 72.0494881 305.43438721 80.27435303 C298.18712527 101.32207182 291.15773816 122.44240454 284.125 143.5625 C283.71109386 144.80550243 283.71109386 144.80550243 283.28882599 146.07361603 C279.85666299 156.38156142 276.42713002 166.6903802 273 177 C270.36 177 267.72 177 265 177 C263.0581453 171.35565641 261.12142238 165.70956627 259.1875 160.0625 C258.88631256 159.18327881 258.58512512 158.30405762 258.27481079 157.39819336 C254.08552674 145.15771244 249.95464488 132.89849961 245.875 120.62109375 C245.65942255 119.97261034 245.4438451 119.32412693 245.221735 118.65599251 C243.06385537 112.16445911 240.90890364 105.67197577 238.76229668 99.17670536 C237.76418558 96.15878022 236.76254591 93.14202532 235.76171875 90.125 C235.21263855 88.45750954 235.21263855 88.45750954 234.65246582 86.7563324 C234.31686646 85.74619583 233.98126709 84.73605927 233.63549805 83.6953125 C233.34241257 82.80859863 233.04932709 81.92188477 232.74736023 81.00830078 C232.17033207 79.03163542 232.17033207 79.03163542 231 78 C229.288744 82.62419254 227.5780438 87.2485894 225.86816406 91.87329102 C224.35926171 95.95401197 222.84784772 100.03379181 221.33496094 104.11303711 C217.60489826 114.18040311 213.89622021 124.25411413 210.26998901 134.35942078 C208.66004467 138.84509254 207.04040336 143.32723972 205.42059326 147.80935669 C204.64246121 149.97182863 203.86935615 152.1361163 203.10137939 154.30221558 C202.02286868 157.34288385 200.92730738 160.37691085 199.828125 163.41015625 C199.5141275 164.31025421 199.20013 165.21035217 198.87661743 166.13772583 C197.04995457 171.11948439 195.32410746 174.65489585 191 178 C188.1612599 178.36771245 185.98179849 178.48630804 183.1875 178.3125 C182.14819336 178.27866211 182.14819336 178.27866211 181.08789062 178.24414062 C179.39098427 178.18562661 177.69520139 178.0959548 176 178 C173.27564307 171.3704481 170.80225592 164.69957974 168.53125 157.90234375 C167.87641993 155.96097913 167.2214672 154.01965587 166.56640625 152.07836914 C166.22883301 151.07484406 165.89125977 150.07131897 165.54345703 149.03738403 C158.65721333 128.57985078 151.51189753 108.23582303 144 88 C143.53327881 89.11930908 143.06655762 90.23861816 142.58569336 91.3918457 C137.07524734 104.60217664 131.54511783 117.8041863 126 131 C125.43406128 132.34765442 125.43406128 132.34765442 124.85668945 133.72253418 C122.79300867 138.63458873 120.72170162 143.54328456 118.63796997 148.4468689 C118.0101693 149.92684171 117.38469578 151.40780412 116.76168823 152.88980103 C107.79901539 174.19387787 107.79901539 174.19387787 101.3515625 177.375 C94.83456984 179.10709107 86.17257599 179.55423033 79.9375 176.625 C73.16765552 170.57535174 69.90286692 161.9315309 66.93359375 153.53515625 C66.4003524 152.06851784 66.4003524 152.06851784 65.8563385 150.57225037 C64.70723385 147.40567619 63.57245344 144.2341703 62.4375 141.0625 C61.6326542 138.83812748 60.826652 136.61417306 60.01953125 134.390625 C58.41136164 129.95857101 56.80739911 125.5250325 55.20654297 121.09033203 C52.35630694 113.20739265 49.43414869 105.3519925 46.5 97.5 C42.74558132 87.43695451 39.02871415 77.36070827 35.33984375 67.2734375 C34.93492706 66.16716003 34.53001038 65.06088257 34.11282349 63.92108154 C32.10150598 58.42592558 30.09306767 52.92975225 28.08984375 47.43164062 C27.3504036 45.41010387 26.61082654 43.38861719 25.87109375 41.3671875 C25.53931625 40.4530307 25.20753876 39.5388739 24.8657074 38.59701538 C19.57148439 24.16199787 14.55844589 10.98805403 0 4 C0 2.68 0 1.36 0 0 Z " fill="#F7762F" transform="translate(81,407)"/>
<path d="M0 0 C9.08138082 7.0853055 13.49224584 16.41415675 15.375 27.6875 C15.4735529 29.98538626 15.52041204 32.28572758 15.53271484 34.58569336 C15.53779556 35.25953568 15.54287628 35.93337799 15.54811096 36.62763977 C15.5587705 38.08390463 15.5674078 39.54018542 15.57423019 40.99647331 C15.58607815 43.30474611 15.60554448 45.61283673 15.62734985 47.92103577 C15.68877709 54.4813936 15.74300756 61.04172933 15.77636719 67.60229492 C15.79735116 71.62177041 15.83267811 75.64090718 15.87712479 79.66018867 C15.89124883 81.18749563 15.89999909 82.71486242 15.90317917 84.24223137 C15.90810687 86.38181746 15.93130887 88.52050893 15.95849609 90.65991211 C15.96658295 91.8750499 15.9746698 93.09018768 15.98300171 94.34214783 C16.42092706 98.07944608 17.41283787 100.49192516 19.375 103.6875 C23.89048493 106.73282705 28.07563816 107.23065846 33.375 107.6875 C34.365 111.1525 34.365 111.1525 35.375 114.6875 C24.12099083 120.65212486 13.55588379 125.3328394 0.6875 121.625 C-7.5572725 116.8025859 -11.93987281 111.49282795 -15.625 102.6875 C-15.99109375 103.1 -16.3571875 103.5125 -16.734375 103.9375 C-27.15976529 115.05791631 -40.18725788 121.79294593 -55.44921875 122.890625 C-67.62973262 123.09003314 -77.26756373 120.38802232 -86.375 112.09375 C-92.07817704 106.04838234 -94.80662254 98.95470146 -95.125 90.6875 C-94.76878685 81.42595805 -91.03828381 73.35173839 -84.625 66.6875 C-71.72107367 55.31037412 -54.09272358 51.05968088 -37.98388672 46.23901367 C-31.58530259 44.31365802 -25.34609121 42.37639542 -19.33959961 39.39331055 C-17.625 38.6875 -17.625 38.6875 -14.625 38.6875 C-15.10316947 22.62045664 -15.10316947 22.62045664 -22.90234375 9.09375 C-27.94020375 4.98121123 -33.73377675 4.10884891 -40.10546875 4.34375 C-46.76757524 5.25268856 -52.17983987 8.16293756 -56.375 13.4296875 C-57.95401426 16.28178201 -58.63245036 19.09449294 -59.4375 22.25 C-60.69836894 26.66557315 -61.63619163 29.47946525 -65.375 32.25 C-71.81603522 35.81037123 -79.41091304 37.47820219 -86.625 38.6875 C-87.285 38.3575 -87.945 38.0275 -88.625 37.6875 C-89.37677076 27.0791793 -87.43725904 16.93312588 -80.5078125 8.55859375 C-60.1546201 -11.66791903 -24.23287141 -15.56042995 0 0 Z " fill="#0F1010" transform="translate(629.625,463.3125)"/>
<path d="M0 0 C1.45068452 1.21357791 2.88893888 2.44221663 4.3125 3.6875 C5.23869141 4.43773437 5.23869141 4.43773437 6.18359375 5.203125 C15.23547472 13.18652114 19.65716814 26.100177 21.3125 37.6875 C21.3125 42.9675 21.3125 48.2475 21.3125 53.6875 C-8.0575 53.6875 -37.4275 53.6875 -67.6875 53.6875 C-65.57994023 70.5479782 -62.87149726 83.60918642 -49.53125 94.375 C-40.05185346 101.12304499 -29.13748216 103.01935149 -17.73828125 101.22265625 C-5.36690655 98.54562382 2.52899142 92.54542886 10.3125 82.6875 C10.6425 82.0275 10.9725 81.3675 11.3125 80.6875 C14.3956351 81.88649698 17.37529492 83.16450477 20.3125 84.6875 C15.88624132 99.34142437 5.44284828 109.47039948 -7.6875 116.6875 C-23.42975059 124.35557654 -41.00258636 124.63313368 -57.6875 119.6875 C-67.19534247 115.98666258 -74.59647313 110.97623208 -81.6875 103.6875 C-82.23664063 103.17058594 -82.78578125 102.65367187 -83.3515625 102.12109375 C-96.24581993 88.9165467 -99.1657737 69.99981974 -99.03955078 52.43066406 C-98.61675589 33.88017381 -91.45935314 19.09096472 -78.25 6.125 C-69.49661641 -1.50581226 -57.98816831 -6.77695353 -46.6875 -9.3125 C-45.718125 -9.539375 -44.74875 -9.76625 -43.75 -10 C-28.77533864 -11.52802667 -12.27144166 -9.21904945 0 0 Z " fill="#0E1010" transform="translate(498.6875,464.3125)"/>
<path d="M0 0 C16.17 0 32.34 0 49 0 C49 1.65 49 3.3 49 5 C48.154375 5.7425 47.30875 6.485 46.4375 7.25 C43.59357321 9.84163617 43.59357321 9.84163617 44.0234375 13.640625 C45.10304543 21.14897841 47.79729458 28.32873231 50.1875 35.5 C50.72217771 37.12508037 51.25634649 38.75032826 51.79003906 40.37573242 C56.98793355 56.15351637 62.37842925 71.86691183 67.7734375 87.578125 C71.59045631 98.69403461 75.30789049 109.8420296 79 121 C85.54364317 102.0776908 91.25457627 82.90308367 97.02600098 63.73535156 C98.08282419 60.2278073 99.14232536 56.72107458 100.20193958 53.21437263 C101.47535031 48.99995154 102.74761847 44.7851859 104.01953125 40.5703125 C104.2582728 39.77924229 104.49701435 38.98817207 104.74299049 38.17313004 C105.42016878 35.9282651 106.0965785 33.68317017 106.77270508 31.43798828 C106.9695842 30.78549103 107.16646332 30.13299377 107.36930847 29.46072388 C107.91661366 27.64160402 108.45839528 25.82082518 109 24 C109.36949265 22.76893524 109.73898529 21.53787048 110.11967468 20.26950073 C111.09442753 16.6492991 111.35880505 13.73157248 111 10 C109.27974216 7.62440584 107.48676301 6.65784201 105 5 C105 3.35 105 1.7 105 0 C117.21 0 129.42 0 142 0 C141.67 1.65 141.34 3.3 141 5 C139.948125 5.680625 138.89625 6.36125 137.8125 7.0625 C128.51555375 13.26281812 125.63598417 28.38162134 122.36846924 38.49908447 C121.1583411 42.24513228 119.92722385 45.98419075 118.69741821 49.72381592 C118.05872336 51.66624324 117.42101327 53.60899464 116.78427124 55.55206299 C114.07259881 63.81792608 111.26752314 72.0494881 108.43438721 80.27435303 C101.18712527 101.32207182 94.15773816 122.44240454 87.125 143.5625 C86.84906258 144.39116829 86.57312515 145.21983658 86.28882599 146.07361603 C82.85666299 156.38156142 79.42713002 166.6903802 76 177 C73.36 177 70.72 177 68 177 C66.0581453 171.35565641 64.12142238 165.70956627 62.1875 160.0625 C61.88631256 159.18327881 61.58512512 158.30405762 61.27481079 157.39819336 C57.08552674 145.15771244 52.95464488 132.89849961 48.875 120.62109375 C48.65942255 119.97261034 48.4438451 119.32412693 48.221735 118.65599251 C46.06385537 112.16445911 43.90890364 105.67197577 41.76229668 99.17670536 C40.76418558 96.15878022 39.76254591 93.14202532 38.76171875 90.125 C38.39566528 89.01333969 38.02961182 87.90167938 37.65246582 86.7563324 C37.14906677 85.24112755 37.14906677 85.24112755 36.63549805 83.6953125 C36.34241257 82.80859863 36.04932709 81.92188477 35.74736023 81.00830078 C35.17033207 79.03163542 35.17033207 79.03163542 34 78 C33.80700821 78.52299683 33.61401642 79.04599365 33.41517639 79.58483887 C15.53954948 128.02341591 15.53954948 128.02341591 8 148 C5.89883157 144.84824735 4.65772284 141.91343715 3.3125 138.375 C2.85488281 137.20710937 2.39726562 136.03921875 1.92578125 134.8359375 C-0.13665514 126.29031497 2.88336759 118.68337598 5.859375 110.67578125 C6.24563049 109.61191696 6.63188599 108.54805267 7.02984619 107.45195007 C8.26055784 104.06863929 9.50493375 100.69055115 10.75 97.3125 C11.5712397 95.0634894 12.39156057 92.81414305 13.2109375 90.56445312 C13.80944519 88.92366287 13.80944519 88.92366287 14.42004395 87.24972534 C15.20751684 85.09027713 15.99423008 82.93055173 16.78015137 80.77053833 C18.38969676 76.35687256 20.00526751 71.95027831 21.72851562 67.57958984 C25.10315943 58.92241991 25.10315943 58.92241991 24 50 C23.71979004 49.02869141 23.43958008 48.05738281 23.15087891 47.05664062 C22.10285876 43.5968012 20.96871307 40.17511565 19.8125 36.75 C19.43802734 35.59886719 19.06355469 34.44773437 18.67773438 33.26171875 C13.69522355 17.07999673 13.69522355 17.07999673 2.25 5.5 C1.5075 5.005 0.765 4.51 0 4 C0 2.68 0 1.36 0 0 Z " fill="#0E1010" transform="translate(278,407)"/>
<path d="M0 0 C17.16 0 34.32 0 52 0 C52 1.65 52 3.3 52 5 C48.535 6.98 48.535 6.98 45 9 C44.80244156 13.87348893 45.2316531 17.46073532 47.02734375 21.98828125 C47.48206055 23.15029053 47.93677734 24.3122998 48.40527344 25.50952148 C48.91568807 26.77731291 49.42644027 28.04496848 49.9375 29.3125 C50.46343099 30.64166617 50.98847262 31.97118454 51.51269531 33.30102539 C53.32229329 37.87523692 55.1605889 42.43771327 57 47 C57.74566135 48.85316762 58.4912646 50.70635862 59.23681641 52.55957031 C64.13127097 64.71721431 69.05584015 76.86249283 74 89 C79.23530248 77.40325142 83.07660745 65.29603333 87.125 53.25 C88.20056155 50.06002064 89.27733747 46.87045753 90.35543823 43.68133545 C91.02162817 41.70961904 91.6862168 39.73736059 92.34890747 37.76446533 C93.73524942 33.65224339 95.14805421 29.56285618 96.69897461 25.50952148 C98.42611907 20.850542 98.76707147 16.89745634 98 12 C95.90549839 8.40942582 93.86624652 6.51888256 90 5 C90 3.35 90 1.7 90 0 C102.21 0 114.42 0 127 0 C125.89903424 5.5048288 125.89903424 5.5048288 122.25 8.125 C114.49042049 14.47440345 112.01242733 25.3710843 108.8125 34.5625 C108.17699058 36.36141884 107.54142262 38.16031725 106.9047699 39.95883179 C106.42765416 41.30697454 105.95108117 42.65530948 105.47499084 44.0038147 C62.90749215 164.54803292 62.90749215 164.54803292 37 178 C29.36775276 180.64396556 17.78197949 180.32026789 10.4375 177 C9.303125 176.34 8.16875 175.68 7 175 C7.67941234 169.23934889 9.60883195 164.04884675 11.5625 158.625 C11.89185547 157.69816406 12.22121094 156.77132812 12.56054688 155.81640625 C13.3692563 153.54264353 14.18251358 151.2706187 15 149 C15.93598022 149.46116211 15.93598022 149.46116211 16.89086914 149.93164062 C24.49713002 153.56894776 33.0297924 154.76084657 41.23828125 152.33984375 C49.41239118 148.15310452 53.21165738 140.0844346 56.99609375 132.18359375 C58.71179942 126.74273725 56.92866873 122.37529287 54.69921875 117.30859375 C54.22339355 116.21538818 53.74756836 115.12218262 53.25732422 113.99584961 C52.48026123 112.23446655 52.48026123 112.23446655 51.6875 110.4375 C50.57587498 107.88695531 49.46962966 105.33408714 48.36328125 102.78125 C48.08005005 102.12926132 47.79681885 101.47727264 47.50500488 100.80552673 C44.71887334 94.38078982 42.03848476 87.91396859 39.375 81.4375 C38.39098738 79.05193382 37.40659381 76.66652476 36.421875 74.28125 C36.03218788 73.3372937 36.03218788 73.3372937 35.6346283 72.37426758 C32.04521644 63.6831681 28.44218356 54.99776968 24.82452393 46.31838989 C24.03449956 44.42099281 23.24600794 42.5229567 22.45916748 40.62423706 C15.2954202 19.49334028 15.2954202 19.49334028 0 5 C0 3.35 0 1.7 0 0 Z " fill="#0E1010" transform="translate(833,458)"/>
<path d="M0 0 C0.00238835 0.84483507 0.00477671 1.68967014 0.00723743 2.56010628 C0.06637264 23.11652347 0.14191328 43.67282327 0.23571491 64.22911263 C0.28068105 74.16998357 0.32009385 84.11081863 0.34643555 94.05175781 C0.36940897 102.71625019 0.4027997 111.38062906 0.44870156 120.04503143 C0.47264259 124.63280222 0.49136561 129.22046055 0.49761391 133.80829239 C0.50366077 138.12736495 0.52364618 142.4461497 0.55427551 146.76511574 C0.56306213 148.34933156 0.56677702 149.93358498 0.56500816 151.51782417 C0.56335358 153.68369296 0.58006904 155.84868627 0.60127258 158.01443481 C0.60588155 159.2256708 0.61049051 160.43690678 0.61523914 161.68484688 C1.197471 166.70143765 2.82476614 169.9394231 6.5625 173.3125 C8.8644712 174.99116117 8.8644712 174.99116117 11 176 C11 178.31 11 180.62 11 183 C-6.82 183 -24.64 183 -43 183 C-43 181.02 -43 179.04 -43 177 C-41.35546875 175.49609375 -41.35546875 175.49609375 -39.1875 174.4375 C-34.94787119 172.1004608 -32.90196949 169.91177309 -31.44237137 165.1998415 C-30.90873422 162.54614997 -30.86763368 160.07305313 -30.85955811 157.36503601 C-30.85384796 156.21691437 -30.84813782 155.06879272 -30.84225464 153.88587952 C-30.84113678 152.63020676 -30.84001892 151.374534 -30.83886719 150.08081055 C-30.83423661 148.74184025 -30.82921163 147.40287127 -30.82382202 146.06390381 C-30.81071928 142.42948954 -30.80425725 138.79509374 -30.79981136 135.16065955 C-30.79687727 132.8884791 -30.79277183 130.61630367 -30.78830719 128.34412575 C-30.77463801 121.23049623 -30.76496845 114.11687821 -30.7611053 107.00323647 C-30.75662548 98.79987053 -30.73907878 90.59667129 -30.7101047 82.39335603 C-30.68846876 76.04671822 -30.6784 69.70012726 -30.67706418 63.35345298 C-30.67601754 59.565467 -30.67013992 55.77763784 -30.65224457 51.98969078 C-30.63573061 48.42490336 -30.63362432 44.86039011 -30.64238358 41.295578 C-30.64351744 39.37060041 -30.62982586 37.44563177 -30.6156311 35.52070618 C-30.64564073 29.28841791 -30.77316771 24.42340116 -34 19 C-34.886875 18.484375 -35.77375 17.96875 -36.6875 17.4375 C-37.450625 16.963125 -38.21375 16.48875 -39 16 C-39.14453125 12.91015625 -39.14453125 12.91015625 -39 10 C-38.23445801 9.80365967 -37.46891602 9.60731934 -36.68017578 9.4050293 C-33.16124698 8.50126215 -29.64312217 7.59440183 -26.125 6.6875 C-24.92101562 6.37876953 -23.71703125 6.07003906 -22.4765625 5.75195312 C-16.23411255 4.1404511 -10.03554571 2.46571664 -3.88623047 0.52661133 C-2 0 -2 0 0 0 Z " fill="#0F1110" transform="translate(819,400)"/>
<path d="M0 0 C-0.4534601 3.2923566 -0.91369059 6.58373479 -1.375 9.875 C-1.56449219 11.25171875 -1.56449219 11.25171875 -1.7578125 12.65625 C-2.62612538 18.82127145 -3.71032803 24.90923856 -5 31 C-10.07848306 28.5069265 -15.02963112 25.89285818 -19.921875 23.05078125 C-24.36915332 20.80206345 -29.07148373 20.34924445 -34 21 C-42.75564762 25.10979378 -47.49612472 34.08115754 -50.96777344 42.69030762 C-52.67831135 48.17491198 -52.67594528 53.43592929 -52.59375 59.140625 C-52.59379028 60.34765076 -52.59383057 61.55467651 -52.59387207 62.79827881 C-52.58854771 65.32943987 -52.571099 67.86060226 -52.54199219 70.39160156 C-52.49995896 74.25377077 -52.5009487 78.11420181 -52.5078125 81.9765625 C-52.49732416 84.44792871 -52.48438798 86.91928601 -52.46875 89.390625 C-52.46854858 90.5366217 -52.46834717 91.68261841 -52.46813965 92.86334229 C-52.35993127 100.22027923 -52.11795038 106.96199706 -46.5625 112.375 C-44.41267245 113.73830528 -42.3246797 114.96680902 -40 116 C-40 118.31 -40 120.62 -40 123 C-58.15 123 -76.3 123 -95 123 C-95 120.69 -95 118.38 -95 116 C-92.25 113.9375 -92.25 113.9375 -89 112 C-84.66344081 106.25698918 -83.84758532 102.04084881 -83.82299805 95.01538086 C-83.81314125 93.79523788 -83.81314125 93.79523788 -83.80308533 92.55044556 C-83.7833585 89.85524398 -83.77168816 87.16009825 -83.76171875 84.46484375 C-83.75764322 83.54230867 -83.7535677 82.6197736 -83.74936867 81.66928291 C-83.72850581 76.78188425 -83.7142077 71.89451364 -83.70483398 67.00708008 C-83.69379774 61.97576873 -83.65943075 56.94490309 -83.61966228 51.91374874 C-83.59341986 48.03163371 -83.58513516 44.14962336 -83.58155251 40.26742744 C-83.57670251 38.41400725 -83.56513413 36.56059123 -83.54651451 34.70725822 C-83.03440895 20.73855615 -83.03440895 20.73855615 -88 8 C-89.78052608 6.45181767 -89.78052608 6.45181767 -91.75 5.1875 C-92.8225 4.465625 -93.895 3.74375 -95 3 C-95 1.35 -95 -0.3 -95 -2 C-81.14 -2 -67.28 -2 -53 -2 C-52.505 9.88 -52.505 9.88 -52 22 C-51.030625 20.22625 -50.06125 18.4525 -49.0625 16.625 C-43.3876061 6.94564469 -37.17265333 -1.31621766 -26.05078125 -4.5703125 C-16.94215439 -6.4787867 -8.20324202 -4.10162101 0 0 Z " fill="#0D0F0F" transform="translate(773,460)"/>
<path d="M0 0 C0.1498064 4.51647103 0.25788711 9.03157669 0.32958984 13.54980469 C0.35951864 15.0822879 0.40027879 16.61460345 0.45263672 18.14648438 C0.77024413 27.6871619 0.56309306 35.39922068 -6 43 C-12.3502481 49.14560585 -20.46642099 51.10993711 -29.125 51.4375 C-36.03956896 51.24197234 -40.66922329 49.45030372 -45.4375 44.4375 C-49.20265052 38.5638652 -48.62763672 31.73215105 -48 25 C-46.05341017 18.67358305 -41.54828899 15.50481677 -35.921875 12.43359375 C-10.58038147 0 -10.58038147 0 0 0 Z " fill="#F9F8F6" transform="translate(615,515)"/>
<path d="M0 0 C8.10173652 5.23631086 12.20201282 12.72841149 14.3125 22 C15.30779969 27.11346628 15 31.5675138 15 37 C-4.14 37 -23.28 37 -43 37 C-41.72413834 22.96552174 -38.25975885 13.09843087 -28.1875 3.25 C-18.97191578 -3.25511827 -10.42690025 -5.02501217 0 0 Z " fill="#F7F6F4" transform="translate(474,469)"/>
<path d="M0 0 C0.66 0 1.32 0 2 0 C2.00634791 1.2686353 2.00634791 1.2686353 2.01282406 2.56289959 C2.11609831 23.13560609 2.22473127 43.70827819 2.33933926 64.2809248 C2.39463321 74.22967038 2.44810894 84.17841955 2.49731445 94.12719727 C2.54020316 102.79786022 2.58649299 111.46849717 2.63687855 120.13911992 C2.66344171 124.73074574 2.68829384 129.32236652 2.70907402 133.91402245 C2.72868498 138.23545393 2.75284205 142.55683611 2.78049088 146.87822342 C2.78983771 148.46448304 2.79752145 150.05075346 2.80341911 151.63702965 C2.81172064 153.80297013 2.82600841 155.96879223 2.84178162 158.13468933 C2.84823417 159.34684711 2.85468672 160.55900488 2.8613348 161.80789471 C2.98524412 164.66031614 3.34390816 167.22774742 4 170 C1.03449006 167.55023092 0.55207044 165.7538769 0 162 C-0.10106475 159.76603353 -0.15027492 157.52947718 -0.16494751 155.29327393 C-0.17059105 154.63225544 -0.1762346 153.97123695 -0.18204916 153.2901876 C-0.19969857 151.08311409 -0.21044768 148.87606243 -0.22119141 146.66894531 C-0.23241239 145.08364071 -0.24404487 143.49833897 -0.25605774 141.91304016 C-0.28733436 137.61384042 -0.31248251 133.31462501 -0.3362546 129.015378 C-0.35668505 125.42887845 -0.38021951 121.84240214 -0.40379179 118.25592208 C-0.45936125 109.80100853 -0.51010086 101.34607568 -0.55761719 92.89111328 C-0.60677081 84.1562752 -0.66307343 75.42150447 -0.72303832 66.68673444 C-0.77429111 59.19285812 -0.82164558 51.69896456 -0.86572587 44.2050426 C-0.89207793 39.72649371 -0.91982022 35.24796476 -0.9510994 30.76944733 C-0.98026198 26.56373962 -1.00455216 22.35803202 -1.02499962 18.15227318 C-1.03333611 16.60462349 -1.0434059 15.05698207 -1.05528831 13.50935555 C-1.07116402 11.40582777 -1.08091247 9.30236139 -1.08901978 7.1987915 C-1.09601709 6.01893803 -1.10301441 4.83908455 -1.11022377 3.62347794 C-1 1 -1 1 0 0 Z " fill="#212222" transform="translate(817,400)"/>
<path d="M0 0 C2 2 2 2 2 18 C-27.7 18 -57.4 18 -88 18 C-88.33 19.32 -88.66 20.64 -89 22 C-89.042721 20.33388095 -89.04063832 18.66617115 -89 17 C-87.18884376 15.18884376 -84.70122499 15.88004624 -82.29098511 15.87557983 C-81.47171539 15.87917511 -80.65244568 15.88277039 -79.80834961 15.88647461 C-78.94988937 15.88632858 -78.09142914 15.88618256 -77.20695496 15.8860321 C-74.35539262 15.88673153 -71.50389475 15.8945253 -68.65234375 15.90234375 C-66.68079158 15.90420782 -64.70923895 15.90563178 -62.73768616 15.90663147 C-57.53773733 15.91045749 -52.33781625 15.92028848 -47.13787842 15.93133545 C-41.83606339 15.94154778 -36.5342439 15.94612871 -31.23242188 15.95117188 C-20.82160237 15.96191067 -10.41080349 15.97898809 0 16 C0 10.72 0 5.44 0 0 Z " fill="#030303" transform="translate(518,500)"/>
<path d="M0 0 C0.66 0.33 1.32 0.66 2 1 C1.01 1.33 0.02 1.66 -1 2 C-1.73323796 4.01508358 -1.73323796 4.01508358 -2 6 C-1.36550934 5.99777939 -0.73101868 5.99555878 -0.07730103 5.99327087 C6.50835611 5.97119955 13.09400278 5.95608563 19.6796875 5.94506836 C22.13965278 5.94003011 24.59961505 5.9331994 27.05957031 5.92456055 C30.58920025 5.91247277 34.11879069 5.90676671 37.6484375 5.90234375 C38.75367767 5.89718246 39.85891785 5.89202118 40.99765015 5.88670349 C42.01855743 5.88662796 43.03946472 5.88655243 44.09130859 5.88647461 C44.99287689 5.884254 45.89444519 5.88203339 46.82333374 5.87974548 C49 6 49 6 51 7 C51 7.66 51 8.32 51 9 C32.85 9 14.7 9 -4 9 C-4 6.69 -4 4.38 -4 2 C-2.125 0.9375 -2.125 0.9375 0 0 Z " fill="#1A1B1B" transform="translate(682,574)"/>
<path d="M0 0 C12.21 0 24.42 0 37 0 C36.67 1.65 36.34 3.3 36 5 C33.9375 6.3125 33.9375 6.3125 32 7 C32.33 5.68 32.66 4.36 33 3 C29.04840742 3.06878614 25.09775377 3.15670428 21.14697266 3.26245117 C19.14117664 3.31209959 17.13502313 3.34654164 15.12890625 3.38085938 C13.87207031 3.41630859 12.61523438 3.45175781 11.3203125 3.48828125 C10.15773926 3.51446533 8.99516602 3.54064941 7.79736328 3.56762695 C6.8742334 3.71031006 5.95110352 3.85299316 5 4 C4.01 5.485 4.01 5.485 3 7 C2.01 6.34 1.02 5.68 0 5 C0 3.35 0 1.7 0 0 Z " fill="#1D1E1E" transform="translate(383,407)"/>
<path d="M0 0 C16.17 0 32.34 0 49 0 C49 1.65 49 3.3 49 5 C48.01 5 47.02 5 46 5 C46.66 4.01 47.32 3.02 48 2 C32.82 2 17.64 2 2 2 C2.33 2.99 2.66 3.98 3 5 C2.01 4.67 1.02 4.34 0 4 C0 2.68 0 1.36 0 0 Z " fill="#202121" transform="translate(278,407)"/>
<path d="M0 0 C2.64 0.66 5.28 1.32 8 2 C8 2.66 8 3.32 8 4 C8.66 3.67 9.32 3.34 10 3 C12.44467273 2.97974827 14.86989022 2.99963016 17.3125 3.0625 C22.17425221 3.18154388 25.56951748 2.99131796 30 1 C32.3125 1.375 32.3125 1.375 34 2 C33 4 33 4 31.13671875 4.6328125 C22.22457718 6.42376918 10.54159021 8.06012808 2 4 C0.7578125 1.921875 0.7578125 1.921875 0 0 Z " fill="#151616" transform="translate(554,580)"/>
<path d="M0 0 C15.51 0 31.02 0 47 0 C47 0.99 47 1.98 47 3 C45.02 3.66 43.04 4.32 41 5 C41.66 3.68 42.32 2.36 43 1 C42.30140869 1.03552979 41.60281738 1.07105957 40.88305664 1.10766602 C27.1743475 1.78201247 13.6819096 2.23861299 0 1 C0 0.67 0 0.34 0 0 Z " fill="#181919" transform="translate(837,459)"/>
<path d="M0 0 C0.99 0 1.98 0 3 0 C4.03580329 2.89124223 5.0538502 5.78679314 6.0625 8.6875 C6.35705078 9.50412109 6.65160156 10.32074219 6.95507812 11.16210938 C9.54098252 18.67644333 9.54098252 18.67644333 8 23 C6.1316788 20.19751821 5.54583465 18.69445074 4.875 15.5 C4.70742188 14.7265625 4.53984375 13.953125 4.3671875 13.15625 C4 11 4 11 4 8 C3.34 7.67 2.68 7.34 2 7 C0 4 0 4 0 0 Z " fill="#161717" transform="translate(340,486)"/>
<path d="M0 0 C8.58 0 17.16 0 26 0 C26 0.33 26 0.66 26 1 C19.73 1 13.46 1 7 1 C7 1.66 7 2.32 7 3 C6.34 3.66 5.68 4.32 5 5 C4.67 5.66 4.34 6.32 4 7 C2 5.75 2 5.75 0 4 C0 2.68 0 1.36 0 0 Z " fill="#171818" transform="translate(924,459)"/>
<path d="M0 0 C12.87 0 25.74 0 39 0 C39 0.33 39 0.66 39 1 C34.87431757 1.16909163 30.74839266 1.32947509 26.62207031 1.48217773 C25.22158959 1.53518719 23.82119312 1.59047807 22.42089844 1.64819336 C8.101645 2.23546659 8.101645 2.23546659 1 1 C1 1.66 1 2.32 1 3 C1.66 3.33 2.32 3.66 3 4 C2.01 4.33 1.02 4.66 0 5 C-0.33 4.34 -0.66 3.68 -1 3 C-0.67 2.01 -0.34 1.02 0 0 Z " fill="#191B1B" transform="translate(679,459)"/>
<path d="M0 0 C0.33 0 0.66 0 1 0 C1 11.22 1 22.44 1 34 C-0.98 34.495 -0.98 34.495 -3 35 C-2.67 34.01 -2.34 33.02 -2 32 C-1.34 32 -0.68 32 0 32 C0 21.44 0 10.88 0 0 Z " fill="#1C1D1D" transform="translate(616,516)"/>
<path d="M0 0 C2 3 2 3 1.6875 6.625 C1 10 1 10 0 11 C-0.04063832 12.66617115 -0.042721 14.33388095 0 16 C-0.99 16.33 -1.98 16.66 -3 17 C-2.54775239 11.08507728 -1.8417395 5.64800112 0 0 Z " fill="#1B1C1C" transform="translate(403,496)"/>
<path d="M0 0 C0 0.66 0 1.32 0 2 C-3.96 3.65 -7.92 5.3 -12 7 C-11 3 -11 3 -9.2578125 1.69921875 C-8.55398438 1.36535156 -7.85015625 1.03148437 -7.125 0.6875 C-6.42632813 0.34074219 -5.72765625 -0.00601563 -5.0078125 -0.36328125 C-3 -1 -3 -1 0 0 Z " fill="#181819" transform="translate(591,521)"/>
<path d="M0 0 C-0.99 0.33 -1.98 0.66 -3 1 C-3 1.66 -3 2.32 -3 3 C-7.92737019 4.97094808 -11.78020872 5.1799928 -17 5 C-17 4.67 -17 4.34 -17 4 C-14.36 3.67 -11.72 3.34 -9 3 C-9 2.34 -9 1.68 -9 1 C-2.25 -1.125 -2.25 -1.125 0 0 Z " fill="#171718" transform="translate(601,564)"/>
<path d="M0 0 C0.66 0 1.32 0 2 0 C2 2.64 2 5.28 2 8 C6.455 7.505 6.455 7.505 11 7 C7.38616645 8.80691678 4.94580104 9.56157766 1 10 C0 9 0 9 -0.09765625 6.93359375 C-0.08605469 6.10988281 -0.07445312 5.28617187 -0.0625 4.4375 C-0.05347656 3.61121094 -0.04445313 2.78492188 -0.03515625 1.93359375 C-0.02355469 1.29550781 -0.01195312 0.65742188 0 0 Z " fill="#090909" transform="translate(541,492)"/>
<path d="M0 0 C1.28497537 3.85492611 0.4052209 5.40346836 -0.9375 9.1875 C-1.31777344 10.27417969 -1.69804687 11.36085938 -2.08984375 12.48046875 C-2.39019531 13.31191406 -2.69054687 14.14335937 -3 15 C-3.66 14.01 -4.32 13.02 -5 12 C-4.07384451 7.45341849 -2.56781435 3.85172152 0 0 Z " fill="#181818" transform="translate(398,447)"/>
<path d="M0 0 C1.01126953 0.23009766 1.01126953 0.23009766 2.04296875 0.46484375 C5.46877952 1.08483857 8.83893447 1.3352574 12.3125 1.5625 C13.56675781 1.64628906 14.82101562 1.73007812 16.11328125 1.81640625 C17.54220703 1.90728516 17.54220703 1.90728516 19 2 C19 2.33 19 2.66 19 3 C16.20880221 3.22114415 13.4178788 3.42743301 10.625 3.625 C9.8309375 3.68945312 9.036875 3.75390625 8.21875 3.8203125 C6.14971776 3.96058587 4.07374464 3.98758237 2 4 C1.34 3.34 0.68 2.68 0 2 C0 1.34 0 0.68 0 0 Z " fill="#1A1B1C" transform="translate(628,581)"/>
<path d="M0 0 C2.475 0.99 2.475 0.99 5 2 C3.71034824 3.37562854 2.37310707 4.70766393 1 6 C0.34 6 -0.32 6 -1 6 C-0.67 7.32 -0.34 8.64 0 10 C-0.99 10 -1.98 10 -3 10 C-2.01 6.7 -1.02 3.4 0 0 Z " fill="#171717" transform="translate(848,607)"/>
<path d="M0 0 C0.99 0 1.98 0 3 0 C3.55827609 1.26362492 4.09612097 2.5362919 4.625 3.8125 C4.92664063 4.52019531 5.22828125 5.22789062 5.5390625 5.95703125 C5.69117188 6.63121094 5.84328125 7.30539062 6 8 C5.01 9.485 5.01 9.485 4 11 C3.32880451 9.5437455 2.66318193 8.08492133 2 6.625 C1.62875 5.81289063 1.2575 5.00078125 0.875 4.1640625 C0 2 0 2 0 0 Z " fill="#161716" transform="translate(893,520)"/>
<path d="M0 0 C0.66 0 1.32 0 2 0 C1.34 3.3 0.68 6.6 0 10 C-0.99 9.34 -1.98 8.68 -3 8 C-2.01 5.36 -1.02 2.72 0 0 Z " fill="#151616" transform="translate(377,466)"/>
<path d="M0 0 C1.17539996 0.92652701 2.34010577 1.86663387 3.5 2.8125 C4.1496875 3.33457031 4.799375 3.85664062 5.46875 4.39453125 C7 6 7 6 7 9 C3.46352496 7.32482761 2.2088437 6.50719183 0.6875 2.8125 C0.460625 1.884375 0.23375 0.95625 0 0 Z " fill="#151515" transform="translate(439,550)"/>
<path d="M0 0 C0 0.66 0 1.32 0 2 C-2.64 2.99 -5.28 3.98 -8 5 C-8.33 3.68 -8.66 2.36 -9 1 C-2.25 -1.125 -2.25 -1.125 0 0 Z " fill="#151616" transform="translate(805,405)"/>
<path d="M0 0 C0.66 0 1.32 0 2 0 C1.34 1.65 0.68 3.3 0 5 C-0.66 5 -1.32 5 -2 5 C-1.79375 5.763125 -1.5875 6.52625 -1.375 7.3125 C-1 10 -1 10 -3 13 C-4.23076923 7.58461538 -4.23076923 7.58461538 -3.0625 4.625 C-2.711875 4.08875 -2.36125 3.5525 -2 3 C-1.34 3 -0.68 3 0 3 C0 2.01 0 1.02 0 0 Z " fill="#171818" transform="translate(373,483)"/>
<path d="M0 0 C0.66 0 1.32 0 2 0 C2.22331199 1.58129029 2.42804644 3.16521089 2.625 4.75 C2.74101563 5.63171875 2.85703125 6.5134375 2.9765625 7.421875 C3.00207817 10.22859878 2.44843844 11.63384866 1 14 C1 11.36 1 8.72 1 6 C0.34 6 -0.32 6 -1 6 C-0.67 4.02 -0.34 2.04 0 0 Z " fill="#191919" transform="translate(542,486)"/>
<path d="M0 0 C0.66 0.33 1.32 0.66 2 1 C2 4.3 2 7.6 2 11 C1.01 11.495 1.01 11.495 0 12 C-1.89679663 8.20640675 -1.21724428 3.95604392 0 0 Z " fill="#1A1B1B" transform="translate(933,469)"/>
<path d="M0 0 C0.66 0.66 1.32 1.32 2 2 C1.875 4.9375 1.875 4.9375 1 8 C-1.0625 9.875 -1.0625 9.875 -3 11 C-2.32829194 7.1936543 -1.27253436 3.64793184 0 0 Z " fill="#161616" transform="translate(924,532)"/>
<path d="M0 0 C3.62528568 -0.20140476 5.86501708 0.14223235 9 2 C8.67 2.99 8.34 3.98 8 5 C5.36 3.68 2.72 2.36 0 1 C0 0.67 0 0.34 0 0 Z " fill="#151616" transform="translate(448,561)"/>
<path d="M0 0 C0.66 0.33 1.32 0.66 2 1 C1.34 3.97 0.68 6.94 0 10 C-2 6 -2 6 -1.125 2.75 C-0.75375 1.8425 -0.3825 0.935 0 0 Z " fill="#181819" transform="translate(367,499)"/>
<path d="M0 0 C0.78375 0.04125 1.5675 0.0825 2.375 0.125 C0.77811734 3.31876532 -2.45883035 4.70091496 -5.625 6.125 C-6.615 6.125 -7.605 6.125 -8.625 6.125 C-2.625 0.125 -2.625 0.125 0 0 Z " fill="#141516" transform="translate(433.625,462.875)"/>
<path d="M0 0 C3.625 -0.1875 3.625 -0.1875 7 0 C7 0.99 7 1.98 7 3 C4.03 3 1.06 3 -2 3 C-1.34 2.01 -0.68 1.02 0 0 Z " fill="#1D1F1E" transform="translate(601,455)"/>
<path d="M0 0 C1.13643966 3.40931897 0.86747764 4.00335456 -0.4375 7.1875 C-0.72496094 7.90292969 -1.01242187 8.61835937 -1.30859375 9.35546875 C-1.53675781 9.89816406 -1.76492188 10.44085937 -2 11 C-4 8 -4 8 -4 6 C-3.34 6 -2.68 6 -2 6 C-1.34 4.02 -0.68 2.04 0 0 Z " fill="#0A080B" transform="translate(288,544)"/>
<path d="M0 0 C0.94875 0.350625 1.8975 0.70125 2.875 1.0625 C2.875 2.0525 2.875 3.0425 2.875 4.0625 C-0.0969385 2.93798273 -2.45940687 1.83956209 -5.125 0.0625 C-3.125 -0.9375 -3.125 -0.9375 0 0 Z " fill="#191A1A" transform="translate(623.125,459.9375)"/>
<path d="M0 0 C3 2 3 2 4 5 C6.00016466 6.20882096 6.00016466 6.20882096 8 7 C5.69 6.67 3.38 6.34 1 6 C0.67 4.02 0.34 2.04 0 0 Z " fill="#171717" transform="translate(344,576)"/>
<path d="M0 0 C0.99 0 1.98 0 3 0 C3.66 2.31 4.32 4.62 5 7 C3.68 6.67 2.36 6.34 1 6 C0.67 4.02 0.34 2.04 0 0 Z " fill="#1F1F1F" transform="translate(718,562)"/>
<path d="M0 0 C4.75 0.875 4.75 0.875 7 2 C6.67 2.99 6.34 3.98 6 5 C4.02 4.01 2.04 3.02 0 2 C0 1.34 0 0.68 0 0 Z " fill="#171717" transform="translate(487,459)"/>
<path d="M0 0 C0.625 1.8125 0.625 1.8125 1 4 C0.01 5.485 0.01 5.485 -1 7 C-1 7.66 -1 8.32 -1 9 C-1.99 9 -2.98 9 -4 9 C-3.34 7.02 -2.68 5.04 -2 3 C-1.34 3 -0.68 3 0 3 C0 2.01 0 1.02 0 0 Z " fill="#171818" transform="translate(389,430)"/>
<path d="M0 0 C2.64 0 5.28 0 8 0 C7.67 1.65 7.34 3.3 7 5 C6.01 4.34 5.02 3.68 4 3 C4.33 2.67 4.66 2.34 5 2 C3.35 1.67 1.7 1.34 0 1 C0 0.67 0 0.34 0 0 Z " fill="#1B1B1A" transform="translate(951,459)"/>
</svg>
